<svg width="16" height="16" viewBox="0 0 16 16" fill="none" xmlns="http://www.w3.org/2000/svg">
<path d="M10.2545 8.21818C10.1091 8.07273 10.1091 7.85455 10.2545 7.70909L15.7091 2.25455C15.8545 2.10909 15.9273 1.89091 15.9273 1.74545C15.9273 1.6 15.8545 1.38182 15.7091 1.23636L14.6909 0.218182C14.5455 0.0727273 14.3273 0 14.1818 0C13.9636 0 13.8182 0.0727273 13.6727 0.218182L8.21818 5.67273C8.07273 5.81818 7.85455 5.81818 7.70909 5.67273L2.25455 0.218182C2.10909 0.0727273 1.89091 0 1.74545 0C1.6 0 1.38182 0.0727273 1.23636 0.218182L0.218182 1.23636C0.0727273 1.38182 0 1.6 0 1.74545C0 1.89091 0.0727273 2.10909 0.218182 2.25455L5.67273 7.70909C5.81818 7.85455 5.81818 8.07273 5.67273 8.21818L0.218182 13.6727C0.0727273 13.8182 0 14.0364 0 14.1818C0 14.3273 0.0727273 14.5455 0.218182 14.6909L1.23636 15.7091C1.38182 15.8545 1.6 15.9273 1.74545 15.9273C1.89091 15.9273 2.10909 15.8545 2.25455 15.7091L7.70909 10.2545C7.85455 10.1091 8.07273 10.1091 8.21818 10.2545L13.6727 15.7091C13.8182 15.8545 14.0364 15.9273 14.1818 15.9273C14.3273 15.9273 14.5455 15.8545 14.6909 15.7091L15.7091 14.6909C15.8545 14.5455 15.9273 14.3273 15.9273 14.1818C15.9273 14.0364 15.8545 13.8182 15.7091 13.6727L10.2545 8.21818Z" fill="white"/>
</svg>
