<svg width="19" height="21" viewBox="0 0 19 21" fill="none" xmlns="http://www.w3.org/2000/svg">
<path fill-rule="evenodd" clip-rule="evenodd" d="M0.106 7.07754C0.106 6.55554 0.902 5.53454 1.513 4.74954C1.705 4.50254 1.879 4.27854 2.004 4.10154C2.034 4.10554 12.007 4.64454 12.007 4.64454L12.615 4.65454C14.036 4.69754 14.656 3.03954 14.702 2.91154C14.75 2.77954 14.607 2.64654 14.417 2.64654C14.25 2.64654 14.131 2.85854 14.131 2.85854C13.569 4.00354 13.229 4.12654 12.615 4.12654C12.447 4.12654 2.164 3.57354 2.164 3.57354C1.292 3.46554 1.163 3.44554 1.145 2.84754L1.143 2.31654C1.143 0.53054 2.048 0.53054 3.069 0.53054L14.274 0.00054004C15.121 -0.05946 17.474 4.89554 18.561 7.18854C18.741 7.56654 18.886 7.87254 18.984 8.07154C19.019 8.14154 18.984 16.6855 18.984 16.6855C18.984 19.4095 18.779 19.4445 17.424 19.6815L17.416 19.6825C16.969 19.7605 16.396 19.8605 15.666 20.0875C15.666 20.0875 13.696 21.0005 12.71 21.0005C11.725 21.0005 3.462 19.8945 3.462 19.8945C3.05225 19.7719 2.63592 19.6724 2.215 19.5965L2.188 19.5905C0.729 19.3075 0.057 19.1765 0 15.8385C0 15.8385 0.106 7.79254 0.106 7.07754ZM13.147 8.99754L18.164 8.93154C18.321 8.92154 18.439 8.79554 18.429 8.64854C18.417 8.50254 18.279 8.39654 18.123 8.40354L13.127 8.46854C12.97 8.47954 12.852 8.60654 12.863 8.75254C12.873 8.89254 12.999 8.99854 13.147 8.99854V8.99754ZM11.864 19.5175C11.706 19.5175 11.578 19.3975 11.578 19.2525C11.578 19.2525 11.584 8.75254 11.586 8.74154C11.588 8.72854 12.517 5.68354 12.517 5.68354C12.56 5.54354 12.717 5.46154 12.87 5.50154C13.021 5.54154 13.11 5.68754 13.066 5.82854L12.149 8.81354V19.2515C12.149 19.3975 12.021 19.5165 11.864 19.5165V19.5175Z" fill="white"/>
</svg>
